# xmcd
#
# Track frame offsets: 
#        183
#        47728
#        80058
#        100403
#        125283
#        140583
#        179363
#        195428
#        214695
#        231498
#        242965
#        255438
#        269245
#        285465
#        299613
#        308788
#        322130
#
# Disc length: 4472 seconds
#
# Revision: 10
# Processed by: cddbd v1.5.2PL0 Copyright (c) Steve Scherf et al.
# Submitted via: ExactAudioCopy v1.3
#
DISCID=11117611
DTITLE=Detroit Symphony Orchestra - Antal Dorati, conductor - Copland: 
DTITLE=El Salón México etc.
DYEAR=1991
DGENRE=Classical
TTITLE0=El Salón México
TTITLE1=Dance Symphony:  I. Lento - Molto allegro - Adagio molto
TTITLE2=Dance Symphony:  II. Andante moderato
TTITLE3=Dance Symphony:  III. Allegro vivo
TTITLE4=Fanfare for the Common Man
TTITLE5=Rodeo:  I. Buckaroo Holiday
TTITLE6=Rodeo:  II. Corral Nocturne
TTITLE7=Rodeo:  III. Saturday Night Waltz
TTITLE8=Rodeo:  IV. Hoe-Down
TTITLE9=Appalachian Spring Suite (1945):  I. Very Slowly
TTITLE10=Appalachian Spring Suite (1945):  II. Allegro
TTITLE11=Appalachian Spring Suite (1945):  III. The Bride and Her Inte
TTITLE11=nded
TTITLE12=Appalachian Spring Suite (1945):  IV. The Revivalist and His 
TTITLE12=Flock
TTITLE13=Appalachian Spring Suite (1945):  V. Solo Dance of the Bride
TTITLE14=Appalachian Spring Suite (1945):  VI. Meno mosso
TTITLE15=Appalachian Spring Suite (1945):  VII. Variations on a Shaker
TTITLE15=Hymn
TTITLE16=Appalachian Spring Suite (1945):  VIII. Moderato:  Coda
EXTD=Decca 430705-2 YEAR: 1981
EXTT0=
EXTT1=
EXTT2=
EXTT3=
EXTT4=
EXTT5=
EXTT6=
EXTT7=
EXTT8=
EXTT9=
EXTT10=
EXTT11=
EXTT12=
EXTT13=
EXTT14=
EXTT15=
EXTT16=
PLAYORDER=
